<?xml version="1.0" encoding="utf-8"?>
<!-- Generator: Adobe Illustrator 15.1.0, SVG Export Plug-In  -->
<!DOCTYPE svg PUBLIC "-//W3C//DTD SVG 1.1//EN" "http://www.w3.org/Graphics/SVG/1.1/DTD/svg11.dtd" [
	<!ENTITY ns_flows "http://ns.adobe.com/Flows/1.0/">
]>
<svg version="1.1"
	 xmlns="http://www.w3.org/2000/svg" xmlns:xlink="http://www.w3.org/1999/xlink" xmlns:a="http://ns.adobe.com/AdobeSVGViewerExtensions/3.0/"
	 x="0px" y="0px" width="425px" height="77px" viewBox="-5.338 -6.816 425 77"
	 overflow="visible" enable-background="new -5.338 -6.816 425 77" xml:space="preserve">
<defs>
</defs>
<path fill="#FFFFFF" d="M55.031,63.584l-1.857-14.778h-8.496l-1.858,14.778h-7.7l8.849-57.7h10.001l8.761,57.7H55.031z
	 M50.075,25.177c-0.531-4.16-1.062-11.239-1.062-11.239h-0.177c0,0-0.531,7.168-1.061,11.239l-2.124,17.347h6.548L50.075,25.177z"/>
<path fill="#FFFFFF" d="M96.091,63.584v-37.61c0-5.488,0.531-12.391,0.531-12.391h-0.176l-8.055,50.001h-7.61l-8.053-50.001H72.55
	c0,0,0.532,6.814,0.532,12.391v37.61h-7.257v-57.7h11.681l6.019,36.373c0.708,4.247,0.973,11.239,0.973,11.239h0.177
	c0,0,0.265-6.992,0.973-11.239l6.018-36.373h11.682v57.7H96.091z"/>
<path fill="#FFFFFF" d="M128.035,63.584l-1.151-3.274c-1.328,2.301-4.336,3.983-7.875,3.983c-7.257,0-11.24-4.515-11.24-12.389
	V17.566c0-7.876,4.513-12.39,12.124-12.39c7.612,0,12.037,4.513,12.037,12.39v6.549h-7.612v-6.106c0-4.071-1.593-5.929-4.425-5.929
	c-2.832,0-4.513,1.858-4.513,5.929v33.454c0,4.069,1.593,5.84,4.425,5.84s4.513-1.771,4.513-5.84V40.753h-4.513v-6.638h12.125
	v29.469H128.035z"/>
<g>
	<g>
		<path fill="#FFFFFF" d="M14.157,14.161c0,0.835,0.979,1.413,2.507,1.413c2.276,0,4.121-0.778,4.121-2.68v-1.383
			c-0.807,0.518-2.046,0.777-3.603,0.951C15.31,12.663,14.157,13.066,14.157,14.161z M30.189,19.838
			c3.277-2.104,5.315-5.029,5.315-8.263C35.504,5.183,27.555,0,17.754,0C7.947,0,0,5.183,0,11.576s7.947,11.576,17.754,11.576
			c3.669,0,7.079-0.727,9.907-1.969l3.152,2.199l3.632,2.543l-2.542-3.634L30.189,19.838z M21.273,18.656
			c-0.172-0.375-0.287-0.835-0.374-1.383c-0.979,1.037-2.479,1.67-4.552,1.67c-3.14,0-6.022-1.584-6.022-4.811
			c0-3.342,2.795-4.207,6.08-4.495c2.479-0.23,4.235-0.518,4.235-1.729c0-0.777-1.009-1.412-2.708-1.412
			c-1.354,0-2.91,0.605-3.256,1.873h-3.803c0.374-2.823,3.083-4.926,6.972-4.926c6.022,0,6.483,3.89,6.483,5.071v7.722
			c0,0.72,0.23,1.844,0.432,2.42H21.273z"/>
	</g>
</g>
<path fill="#FFFFFF" d="M171.154,38.246l2.764-15.112h5.761l-5.115,24.101h-6.024l-3.229-13.738l-3.161,13.738h-6.009l-5.131-24.101
	h5.776l2.765,15.112l3.311-15.112h4.933L171.154,38.246z"/>
<path fill="#FFFFFF" d="M202.09,47.234h-5.776V37.17h-8.558v10.063h-5.811V23.133h5.811v9.567h8.558v-9.567h5.776V47.234z"/>
<path fill="#FFFFFF" d="M219.752,42.732h-7.962l-1.391,4.502h-6.207l8.839-24.101h5.463l8.905,24.101h-6.24L219.752,42.732z
	 M213.181,38.246h5.181l-2.599-8.358L213.181,38.246z"/>
<path fill="#FFFFFF" d="M248.305,39.074c-0.077,1.678-0.529,3.159-1.357,4.444c-0.827,1.285-1.989,2.281-3.484,2.987
	s-3.202,1.06-5.123,1.06c-3.167,0-5.66-1.031-7.481-3.096c-1.82-2.062-2.73-4.977-2.73-8.739v-1.191c0-2.361,0.41-4.428,1.232-6.199
	s2.006-3.14,3.551-4.105c1.545-0.966,3.332-1.448,5.363-1.448c2.924,0,5.274,0.77,7.051,2.309c1.776,1.539,2.786,3.661,3.029,6.364
	h-5.793c-0.045-1.468-0.414-2.521-1.109-3.161c-0.695-0.641-1.755-0.961-3.178-0.961c-1.446,0-2.506,0.541-3.179,1.623
	c-0.673,1.081-1.026,2.808-1.059,5.181v1.705c0,2.571,0.322,4.408,0.968,5.512s1.757,1.655,3.335,1.655
	c1.336,0,2.356-0.314,3.062-0.943s1.081-1.628,1.126-2.996H248.305z"/>
<path fill="#FFFFFF" d="M259.246,38.262l-2.384,2.615v6.356h-5.811V23.133h5.811V33.76l2.02-3.062l5.197-7.564h7.184l-8.144,10.66
	l8.144,13.44h-6.886L259.246,38.262z"/>
<path fill="#FFFFFF" d="M294.867,42.732h-7.962l-1.391,4.502h-6.207l8.839-24.101h5.463l8.905,24.101h-6.24L294.867,42.732z
	 M288.296,38.246h5.181l-2.599-8.358L288.296,38.246z"/>
<path fill="#FFFFFF" d="M321.202,27.62h-7.233v19.614h-5.81V27.62h-7.102v-4.486h20.145V27.62z"/>
<path fill="#FFFFFF" d="M342.836,27.62h-7.233v19.614h-5.81V27.62h-7.102v-4.486h20.145V27.62z"/>
<path fill="#FFFFFF" d="M356.988,42.732h-7.962l-1.391,4.502h-6.207l8.839-24.101h5.463l8.905,24.101h-6.24L356.988,42.732z
	 M350.417,38.246h5.181l-2.599-8.358L350.417,38.246z"/>
<path fill="#FFFFFF" d="M385.541,39.074c-0.077,1.678-0.529,3.159-1.357,4.444c-0.827,1.285-1.989,2.281-3.484,2.987
	s-3.202,1.06-5.123,1.06c-3.167,0-5.66-1.031-7.481-3.096c-1.82-2.062-2.73-4.977-2.73-8.739v-1.191c0-2.361,0.41-4.428,1.232-6.199
	s2.006-3.14,3.551-4.105c1.545-0.966,3.332-1.448,5.363-1.448c2.924,0,5.274,0.77,7.051,2.309c1.776,1.539,2.786,3.661,3.029,6.364
	h-5.793c-0.045-1.468-0.414-2.521-1.109-3.161c-0.695-0.641-1.755-0.961-3.178-0.961c-1.446,0-2.506,0.541-3.179,1.623
	c-0.673,1.081-1.026,2.808-1.059,5.181v1.705c0,2.571,0.322,4.408,0.968,5.512s1.757,1.655,3.335,1.655
	c1.336,0,2.356-0.314,3.062-0.943s1.081-1.628,1.126-2.996H385.541z"/>
<path fill="#FFFFFF" d="M396.482,38.262l-2.384,2.615v6.356h-5.811V23.133h5.811V33.76l2.02-3.062l5.197-7.564h7.184l-8.144,10.66
	l8.144,13.44h-6.886L396.482,38.262z"/>
<line fill="none" stroke="#FFFFFF" x1="150.662" y1="16.184" x2="409.329" y2="16.184"/>
<line fill="none" stroke="#FFFFFF" x1="150.662" y1="53.184" x2="409.329" y2="53.184"/>
</svg>
